# xmcd
#
# Track frame offsets: 
#        300
#        15260
#        26278
#        44849
#        70648
#        88127
#        104659
#        125971
#        146174
#        162066
#        177061
#        197634
#        215180
#        231474
#        248370
#        265764
#
# Disc length: 3752 seconds
#
# Revision: 2
# Processed by: cddbd v1.5.2PL0 Copyright (c) Steve Scherf et al.
# Submitted via: ExactAudioCopy v1.0b1
#
DISCID=e60ea410
DTITLE=Bobby "Blue" Bland - First Class Blues
DYEAR=1987
DGENRE=
TTITLE0=Two Steps From The Blues
TTITLE1=St. James Infirmary
TTITLE2=Members Only
TTITLE3=Sunday Morning Love
TTITLE4=In The Ghetto
TTITLE5=Sweet Woman's Love
TTITLE6=Angel
TTITLE7=i've Just Got To Know
TTITLE8=Can We Make Love Tonight
TTITLE9=After All
TTITLE10=I Hear You Thinkin'
TTITLE11=Straight From The Shoulder
TTITLE12=Love Me Or Leave Me
TTITLE13=Second Hand Heart
TTITLE14=Walkin' and Talkin' and Singin' The Blues
TTITLE15=Heart, Open Up Again
EXTD=
EXTT0=
EXTT1=
EXTT2=
EXTT3=
EXTT4=
EXTT5=
EXTT6=
EXTT7=
EXTT8=
EXTT9=
EXTT10=
EXTT11=
EXTT12=
EXTT13=
EXTT14=
EXTT15=
PLAYORDER=
